<svg width="160" height="36" viewBox="0 0 160 36" fill="none" xmlns="http://www.w3.org/2000/svg">
  <rect width="36" height="36" rx="10" fill="#0F172A"/>
  <path d="M10 24V12h4.2l6.6 8.3V12H25v12h-4.2L14.2 15.7V24H10Z" fill="#00E5A8"/>
  <path d="M28.5 10.5h4.2L26.5 26h-4.2l6.2-15.5Z" fill="#8B5CF6"/>
  <path d="M43 12h8.4c3.7 0 6 1.7 6 4.8 0 2.2-1.1 3.7-3.1 4.3L58 24h-5.2l-3.1-2.4H47V24h-4V12Zm8 6.5c1.5 0 2.3-.6 2.3-1.7S52.5 15 51 15H47v3.5h4Z" fill="#F8FAFC"/>
  <path d="M60.5 12H71v3.1h-6.5v1.5h6v2.9h-6v1.5h6.7V24H60.5V12Z" fill="#F8FAFC"/>
  <path d="M73.4 12h4.1l3.6 6.2 3.6-6.2h4.1v12h-3.8v-5.7l-2.8 4.8h-2.2l-2.8-4.8V24h-3.8V12Z" fill="#F8FAFC"/>
  <path d="M91.9 12h10.5v3.1h-6.5v1.5h6v2.9h-6v1.5h6.7V24H91.9V12Z" fill="#F8FAFC"/>
  <path d="M104.8 24V12h4.2l6.6 8.3V12h4.2v12h-4.2l-6.6-8.3V24h-4.2Z" fill="#F8FAFC"/>
  <path d="M125.5 15.2h-4.6V12h13.2v3.2h-4.6V24h-4V15.2Z" fill="#F8FAFC"/>
</svg>
